<?xml version="1.0" encoding="utf-8"?>
<!-- Generator: Adobe Illustrator 25.4.1, SVG Export Plug-In . SVG Version: 6.00 Build 0)  -->
<svg version="1.1" id="Layer_1" xmlns="http://www.w3.org/2000/svg" xmlns:xlink="http://www.w3.org/1999/xlink" x="0px" y="0px"
	 viewBox="0 0 512 512" style="enable-background:new 0 0 512 512;" xml:space="preserve">
<style type="text/css">
	.st0{fill:#DB3A34;}
</style>
<path class="st0" d="M100.4,112.3L0.5,491.7c-1.4,5.6,0.2,11.6,4.3,15.6c4.1,4.1,10.1,5.7,15.6,4.1l379.1-105.1
	C395.3,231.4,276.5,114.1,100.4,112.3z M127.1,416c-17.6,0-32-14.4-32-31.1c0-17.6,14.4-32,32-32c17.6,0,32,14.4,32,31.1
	C160,401.6,145.6,416,127.1,416z M175.1,271.1c-17.6,0-32-14.4-32-32s14.4-31.1,32-31.1s32,14.4,32,31.1
	C208,257.6,193.6,271.1,175.1,271.1z M272,367.1c-17.6,0-32-14.4-32-31.1c0-17.6,14.4-32,32-32c17.6,0,32,14.4,32,32
	C304,353.6,289.6,367.1,272,367.1z M158.9,0.1c-16.1-1.5-31.2,8.5-35.4,24.1l-14.8,56.3C296.3,86,423.2,211.1,431.2,396.6l56.9-15.8
	c15.8-4.4,25.5-19.6,23.6-35.9C490.9,165.1,340.8,17.4,158.9,0.1z"/>
</svg>
